<?xml version="1.0" standalone="no"?>
<!DOCTYPE svg PUBLIC "-//W3C//DTD SVG 20010904//EN"
 "http://www.w3.org/TR/2001/REC-SVG-20010904/DTD/svg10.dtd">
<svg version="1.0" xmlns="http://www.w3.org/2000/svg"
 width="269.000000pt" height="269.000000pt" viewBox="0 0 269.000000 269.000000"
 preserveAspectRatio="xMidYMid meet">
<metadata>
Created by potrace 1.14, written by Peter Selinger 2001-2017
</metadata>
<g transform="translate(0.000000,269.000000) scale(0.100000,-0.100000)"
fill="#000000" stroke="none">
<path d="M1420 1355 c0 -437 3 -795 8 -795 15 -1 288 -2 325 -1 l37 1 0 82 0
83 22 -32 c31 -43 118 -104 181 -127 28 -10 86 -20 127 -23 242 -16 449 126
530 366 29 87 32 107 35 234 4 171 -27 290 -106 408 -151 225 -456 293 -675
151 -33 -22 -72 -54 -87 -73 l-27 -34 0 278 0 277 -185 0 -185 0 0 -795z m742
74 c21 -11 48 -27 59 -37 26 -21 69 -87 76 -116 44 -188 -2 -319 -140 -393
-47 -26 -169 -24 -223 4 -57 30 -108 91 -129 153 -34 101 -15 242 41 317 68
90 215 123 316 72z"/>
<path d="M385 2084 c-125 -27 -247 -101 -304 -185 -55 -80 -74 -143 -74 -249
0 -124 24 -188 99 -269 68 -74 145 -115 344 -181 170 -57 200 -71 245 -108 40
-34 58 -78 50 -127 -10 -68 -62 -110 -146 -118 -101 -9 -178 40 -201 128 l-12
43 -194 0 -193 1 6 -47 c15 -116 51 -188 128 -263 106 -103 241 -151 427 -153
135 -1 187 5 258 32 130 50 212 123 270 242 35 72 37 79 37 185 0 100 -3 115
-28 167 -17 35 -50 77 -86 110 -78 72 -137 101 -383 188 -127 44 -189 79 -219
121 -30 42 -22 120 17 161 56 57 174 55 238 -6 20 -19 39 -47 42 -66 4 -17 15
-35 25 -38 23 -9 368 -7 376 2 11 11 -17 127 -44 185 -49 104 -174 200 -309
237 -82 22 -280 26 -369 8z"/>
</g>
</svg>
